<svg viewBox="0 0 640 360" xmlns="http://www.w3.org/2000/svg" role="img" aria-label="Active Directory Users and Computers console">
  <rect width="640" height="360" fill="#f0f0f0"/>
  <rect x="0" y="0" width="640" height="30" fill="#0a4d8c"/>
  <rect x="8" y="8" width="14" height="14" rx="2" fill="#e8eef6"/>
  <path d="M11 15h8M11 12h8M11 18h6" stroke="#0a4d8c" stroke-width="1.3"/>
  <text x="30" y="20" font-family="Segoe UI,system-ui,sans-serif" font-size="12" fill="#ffffff">Active Directory Users and Computers</text>
  <g fill="#cdddef"><rect x="566" y="11" width="12" height="8"/><rect x="592" y="11" width="12" height="8"/></g>
  <path d="M620 11l10 10M630 11l-10 10" stroke="#ffffff" stroke-width="1.4"/>
  <rect x="0" y="30" width="640" height="22" fill="#f7f7f7" stroke="#d9d9d9"/>
  <g font-family="Segoe UI,system-ui" font-size="11" fill="#333"><text x="12" y="45">File</text><text x="44" y="45">Action</text><text x="92" y="45">View</text><text x="128" y="45">Help</text></g>
  <rect x="0" y="52" width="640" height="24" fill="#eaeaea" stroke="#d9d9d9"/>
  <g fill="#5b86b0"><rect x="12" y="60" width="12" height="9" rx="1"/><rect x="32" y="60" width="12" height="9" rx="1"/><rect x="56" y="60" width="12" height="9" rx="1"/></g>
  <rect x="0" y="76" width="232" height="266" fill="#ffffff" stroke="#d9d9d9"/>
  <g font-family="Segoe UI,system-ui" font-size="11" fill="#1f2937">
    <text x="26" y="96">▾ 📁 sirvantes.local</text>
    <text x="44" y="116">▸ Builtin</text>
    <text x="44" y="134">▸ Computers</text>
    <text x="44" y="152">▸ Domain Controllers</text>
    <rect x="36" y="158" width="190" height="18" fill="#cce4ff"/>
    <text x="44" y="171" font-weight="600">▾ 🗂 IT</text>
    <text x="44" y="190">▸ 🗂 Sales</text>
    <text x="44" y="208">▸ 🗂 HR</text>
    <text x="44" y="226">▸ Users</text>
  </g>
  <rect x="232" y="76" width="408" height="266" fill="#ffffff" stroke="#d9d9d9"/>
  <rect x="232" y="76" width="408" height="22" fill="#f3f3f3" stroke="#e2e2e2"/>
  <g font-family="Segoe UI,system-ui" font-size="11" fill="#444" font-weight="600">
    <text x="262" y="91">Name</text><text x="430" y="91">Type</text><text x="520" y="91">Description</text>
  </g>
  <g font-family="Segoe UI,system-ui" font-size="11" fill="#1f2937">
    <g>
      <rect x="232" y="98" width="408" height="22" fill="#ffffff"/>
      <circle cx="246" cy="109" r="6" fill="#3b82f6"/><text x="262" y="113">Juan Dela Cruz</text><text x="430" y="113" fill="#555">User</text><text x="520" y="113" fill="#777">Helpdesk</text>
    </g>
    <g><rect x="232" y="120" width="408" height="22" fill="#f7f9fc"/>
      <circle cx="246" cy="131" r="6" fill="#3b82f6"/><text x="262" y="135">Maria Santos</text><text x="430" y="135" fill="#555">User</text><text x="520" y="135" fill="#777">Network Admin</text></g>
    <g><rect x="232" y="142" width="408" height="22" fill="#ffffff"/>
      <circle cx="246" cy="153" r="6" fill="#16a34a"/><text x="262" y="157">jcervantes</text><text x="430" y="157" fill="#555">User</text><text x="520" y="157" fill="#777">Domain Admin</text></g>
    <g><rect x="232" y="164" width="408" height="22" fill="#f7f9fc"/>
      <rect x="240" y="150" width="12" height="9" rx="1" fill="#64748b"/><text x="262" y="179">WKS-IT-01</text><text x="430" y="179" fill="#555">Computer</text><text x="520" y="179" fill="#777">Win 11</text></g>
    <g><rect x="232" y="186" width="408" height="22" fill="#ffffff"/>
      <rect x="240" y="172" width="12" height="9" rx="1" fill="#64748b"/><text x="262" y="201">WKS-IT-02</text><text x="430" y="201" fill="#555">Computer</text><text x="520" y="201" fill="#777">Win 11</text></g>
    <g><rect x="232" y="208" width="408" height="22" fill="#f7f9fc"/>
      <rect x="239" y="195" width="14" height="10" rx="2" fill="#a855f7"/><text x="262" y="223">GPO-Baseline</text><text x="430" y="223" fill="#555">Group Policy</text><text x="520" y="223" fill="#777">Security</text></g>
  </g>
  <rect x="0" y="342" width="640" height="18" fill="#e9e9e9" stroke="#d4d4d4"/>
  <text x="10" y="354" font-family="Segoe UI,system-ui" font-size="10" fill="#555">6 objects · OU=IT, DC=sirvantes, DC=local</text>
</svg>
